{
	"asset":{
		"generator":"Khronos glTF Blender I/O v3.5.30",
		"version":"2.0"
	},
	"scene":0,
	"scenes":[
		{
			"name":"Scene",
			"nodes":[
				0
			]
		}
	],
	"nodes":[
		{
			"mesh":0,
			"name":"G-__555591",
			"translation":[
				-1.3220000267028809,
				-0.004999999888241291,
				0.19900000095367432
			]
		}
	],
	"materials":[
		{
			"doubleSided":true,
			"name":"Material",
			"pbrMetallicRoughness":{
				"baseColorFactor":[
					0.800000011920929,
					0.800000011920929,
					0.800000011920929,
					1
				],
				"metallicFactor":0,
				"roughnessFactor":0.5
			}
		},
		{
			"doubleSided":true,
			"name":"<auto>",
			"pbrMetallicRoughness":{
				"baseColorFactor":[
					0.6120656132698059,
					0.6120656132698059,
					0.6120656132698059,
					1
				],
				"metallicFactor":0,
				"roughnessFactor":0.4000000059604645
			}
		}
	],
	"meshes":[
		{
			"name":"G-__555591",
			"primitives":[
				{
					"attributes":{
						"POSITION":0,
						"TEXCOORD_0":1,
						"NORMAL":2
					},
					"indices":3,
					"material":0
				},
				{
					"attributes":{
						"POSITION":4,
						"TEXCOORD_0":5,
						"NORMAL":6
					},
					"indices":7,
					"material":1
				}
			]
		}
	],
	"accessors":[
		{
			"bufferView":0,
			"componentType":5126,
			"count":4040,
			"max":[
				2.6600000858306885,
				3,
				0.011999830603599548
			],
			"min":[
				0,
				-8.530914783477783e-07,
				-0.2150000035762787
			],
			"type":"VEC3"
		},
		{
			"bufferView":1,
			"componentType":5126,
			"count":4040,
			"type":"VEC2"
		},
		{
			"bufferView":2,
			"componentType":5126,
			"count":4040,
			"type":"VEC3"
		},
		{
			"bufferView":3,
			"componentType":5123,
			"count":10056,
			"type":"SCALAR"
		},
		{
			"bufferView":4,
			"componentType":5126,
			"count":12,
			"max":[
				1.2976018190383911,
				2.183511257171631,
				0.011999830603599548
			],
			"min":[
				0.354502409696579,
				2.138150453567505,
				-8.139759302139282e-07
			],
			"type":"VEC3"
		},
		{
			"bufferView":5,
			"componentType":5126,
			"count":12,
			"type":"VEC2"
		},
		{
			"bufferView":6,
			"componentType":5126,
			"count":12,
			"type":"VEC3"
		},
		{
			"bufferView":7,
			"componentType":5123,
			"count":18,
			"type":"SCALAR"
		}
	],
	"bufferViews":[
		{
			"buffer":0,
			"byteLength":48480,
			"byteOffset":0,
			"target":34962
		},
		{
			"buffer":0,
			"byteLength":32320,
			"byteOffset":48480,
			"target":34962
		},
		{
			"buffer":0,
			"byteLength":48480,
			"byteOffset":80800,
			"target":34962
		},
		{
			"buffer":0,
			"byteLength":20112,
			"byteOffset":129280,
			"target":34963
		},
		{
			"buffer":0,
			"byteLength":144,
			"byteOffset":149392,
			"target":34962
		},
		{
			"buffer":0,
			"byteLength":96,
			"byteOffset":149536,
			"target":34962
		},
		{
			"buffer":0,
			"byteLength":144,
			"byteOffset":149632,
			"target":34962
		},
		{
			"buffer":0,
			"byteLength":36,
			"byteOffset":149776,
			"target":34963
		}
	],
	"buffers":[
		{
			"byteLength":149812,
			"uri":"data:application/octet-stream;base64,"
		}
	]
}
