{
  "accessors": [
    {
      "bufferView": 2,
      "componentType": 5126,
      "count": 82,
      "max": [
        1364.3499755859375,
        253.90699768066406,
        1299.449951171875
      ],
      "min": [
        -84.411102294921875,
        164.51600646972656,
        482.33099365234375
      ],
      "type": "VEC3"
    },
    {
      "bufferView": 2,
      "byteOffset": 984,
      "componentType": 5126,
      "count": 82,
      "max": [
        0.99312824010848999,
        1,
        1.4196403753885534e-05
      ],
      "min": [
        -0.99312824010848999,
        -0.11703301221132278,
        -5.8060806622961536e-05
      ],
      "type": "VEC3"
    },
    {
      "bufferView": 1,
      "componentType": 5126,
      "count": 82,
      "max": [
        -270.7969970703125,
        907.5670166015625
      ],
      "min": [
        -730.36798095703125,
        111.75
      ],
      "type": "VEC2"
    },
    {
      "bufferView": 0,
      "componentType": 5125,
      "count": 192,
      "max": [
        81
      ],
      "min": [
        0
      ],
      "type": "SCALAR"
    },
    {
      "bufferView": 2,
      "byteOffset": 1968,
      "componentType": 5126,
      "count": 11216,
      "max": [
        711.1090087890625,
        201.28599548339844,
        399.77801513671875
      ],
      "min": [
        342.79901123046875,
        -40.204399108886719,
        283.46099853515625
      ],
      "type": "VEC3"
    },
    {
      "bufferView": 2,
      "byteOffset": 136560,
      "componentType": 5126,
      "count": 11216,
      "max": [
        1,
        1,
        1
      ],
      "min": [
        -1,
        -1,
        -1
      ],
      "type": "VEC3"
    },
    {
      "bufferView": 1,
      "byteOffset": 656,
      "componentType": 5126,
      "count": 11216,
      "max": [
        10.414600372314453,
        15.681300163269043
      ],
      "min": [
        -10.187999725341797,
        -7.8239798545837402
      ],
      "type": "VEC2"
    },
    {
      "bufferView": 0,
      "byteOffset": 768,
      "componentType": 5125,
      "count": 14235,
      "max": [
        11215
      ],
      "min": [
        0
      ],
      "type": "SCALAR"
    },
    {
      "bufferView": 2,
      "byteOffset": 271152,
      "componentType": 5126,
      "count": 1419,
      "max": [
        530.11297607421875,
        -27.646900177001953,
        355.69500732421875
      ],
      "min": [
        379.45599365234375,
        -40.204399108886719,
        350.18099975585938
      ],
      "type": "VEC3"
    },
    {
      "bufferView": 2,
      "byteOffset": 288180,
      "componentType": 5126,
      "count": 1419,
      "max": [
        1,
        1,
        1
      ],
      "min": [
        -1,
        -1,
        -1
      ],
      "type": "VEC3"
    },
    {
      "bufferView": 1,
      "byteOffset": 90384,
      "componentType": 5126,
      "count": 1419,
      "max": [
        3.0808999538421631,
        8.4766302108764648
      ],
      "min": [
        -3.0808999538421631,
        -2.7722399234771729
      ],
      "type": "VEC2"
    },
    {
      "bufferView": 0,
      "byteOffset": 57708,
      "componentType": 5125,
      "count": 2727,
      "max": [
        1418
      ],
      "min": [
        0
      ],
      "type": "SCALAR"
    },
    {
      "bufferView": 2,
      "byteOffset": 305208,
      "componentType": 5126,
      "count": 53,
      "max": [
        1359.4200439453125,
        206.99099731445312,
        1295.6400146484375
      ],
      "min": [
        -79.487197875976562,
        156.19099426269531,
        486.1409912109375
      ],
      "type": "VEC3"
    },
    {
      "bufferView": 2,
      "byteOffset": 305844,
      "componentType": 5126,
      "count": 53,
      "max": [
        0.1288759708404541,
        -0.99166077375411987,
        4.8152001930570378e-16
      ],
      "min": [
        -0.1288759708404541,
        -1,
        -5.4869086195168654e-18
      ],
      "type": "VEC3"
    },
    {
      "bufferView": 1,
      "byteOffset": 101736,
      "componentType": 5126,
      "count": 53,
      "max": [
        0.98971498012542725,
        0.98713797330856323
      ],
      "min": [
        0.027779299765825272,
        0.0017854799516499043
      ],
      "type": "VEC2"
    },
    {
      "bufferView": 0,
      "byteOffset": 68616,
      "componentType": 5125,
      "count": 87,
      "max": [
        52
      ],
      "min": [
        0
      ],
      "type": "SCALAR"
    },
    {
      "bufferView": 2,
      "byteOffset": 306480,
      "componentType": 5126,
      "count": 734,
      "max": [
        1365.719970703125,
        302.24099731445312,
        1301.0400390625
      ],
      "min": [
        -85.780799865722656,
        130.08799743652344,
        409.94100952148438
      ],
      "type": "VEC3"
    },
    {
      "bufferView": 2,
      "byteOffset": 315288,
      "componentType": 5126,
      "count": 734,
      "max": [
        1,
        1,
        1
      ],
      "min": [
        -1,
        -1,
        -1
      ],
      "type": "VEC3"
    },
    {
      "bufferView": 1,
      "byteOffset": 102160,
      "componentType": 5126,
      "count": 734,
      "max": [
        56.965999603271484,
        55.930500030517578
      ],
      "min": [
        -56.934799194335938,
        -50.987400054931641
      ],
      "type": "VEC2"
    },
    {
      "bufferView": 0,
      "byteOffset": 68964,
      "componentType": 5125,
      "count": 1302,
      "max": [
        733
      ],
      "min": [
        0
      ],
      "type": "SCALAR"
    },
    {
      "bufferView": 2,
      "byteOffset": 324096,
      "componentType": 5126,
      "count": 180,
      "max": [
        -125.18000030517578,
        -46,
        700.44000244140625
      ],
      "min": [
        -137.13699340820312,
        -46.080101013183594,
        688.48199462890625
      ],
      "type": "VEC3"
    },
    {
      "bufferView": 2,
      "byteOffset": 326256,
      "componentType": 5126,
      "count": 180,
      "max": [
        1,
        8.2470049669533529e-13,
        1
      ],
      "min": [
        -1,
        -1,
        -1
      ],
      "type": "VEC3"
    },
    {
      "bufferView": 1,
      "byteOffset": 108032,
      "componentType": 5126,
      "count": 180,
      "max": [
        0.48272201418876648,
        0.62992101907730103
      ],
      "min": [
        -0.62992101907730103,
        -0.0039370101876556873
      ],
      "type": "VEC2"
    },
    {
      "bufferView": 0,
      "byteOffset": 74172,
      "componentType": 5125,
      "count": 378,
      "max": [
        179
      ],
      "min": [
        0
      ],
      "type": "SCALAR"
    },
    {
      "bufferView": 2,
      "byteOffset": 328416,
      "componentType": 5126,
      "count": 127,
      "max": [
        1363.199951171875,
        206.99099731445312,
        1299.449951171875
      ],
      "min": [
        -83.265403747558594,
        155.69999694824219,
        482.33099365234375
      ],
      "type": "VEC3"
    },
    {
      "bufferView": 2,
      "byteOffset": 329940,
      "componentType": 5126,
      "count": 127,
      "max": [
        0.1288759708404541,
        -0.99166077375411987,
        1.9296308393377051e-14
      ],
      "min": [
        -0.1288759708404541,
        -1,
        -4.0031414056014569e-14
      ],
      "type": "VEC3"
    },
    {
      "bufferView": 1,
      "byteOffset": 109472,
      "componentType": 5126,
      "count": 127,
      "max": [
        56.140098571777344,
        35.020000457763672
      ],
      "min": [
        0.52886700630187988,
        2.8499999046325684
      ],
      "type": "VEC2"
    },
    {
      "bufferView": 0,
      "byteOffset": 75684,
      "componentType": 5125,
      "count": 249,
      "max": [
        126
      ],
      "min": [
        0
      ],
      "type": "SCALAR"
    },
    {
      "bufferView": 2,
      "byteOffset": 331464,
      "componentType": 5126,
      "count": 17074,
      "max": [
        716.9639892578125,
        209.97999572753906,
        399.77801513671875
      ],
      "min": [
        342.79901123046875,
        -48.491001129150391,
        293.82199096679688
      ],
      "type": "VEC3"
    },
    {
      "bufferView": 2,
      "byteOffset": 536352,
      "componentType": 5126,
      "count": 17074,
      "max": [
        1,
        1,
        1
      ],
      "min": [
        -1,
        -1,
        -1
      ],
      "type": "VEC3"
    },
    {
      "bufferView": 1,
      "byteOffset": 110488,
      "componentType": 5126,
      "count": 17074,
      "max": [
        10.685500144958496,
        17.210699081420898
      ],
      "min": [
        -10.707699775695801,
        -8.9253396987915039
      ],
      "type": "VEC2"
    },
    {
      "bufferView": 0,
      "byteOffset": 76680,
      "componentType": 5125,
      "count": 19272,
      "max": [
        17073
      ],
      "min": [
        0
      ],
      "type": "SCALAR"
    },
    {
      "bufferView": 2,
      "byteOffset": 741240,
      "componentType": 5126,
      "count": 749,
      "max": [
        1341.1300048828125,
        304,
        412
      ],
      "min": [
        -148.87199401855469,
        -56,
        0
      ],
      "type": "VEC3"
    },
    {
      "bufferView": 2,
      "byteOffset": 750228,
      "componentType": 5126,
      "count": 749,
      "max": [
        1,
        1,
        1
      ],
      "min": [
        -1,
        -1,
        -1
      ],
      "type": "VEC3"
    },
    {
      "bufferView": 1,
      "byteOffset": 247080,
      "componentType": 5126,
      "count": 749,
      "max": [
        2.6919798851013184,
        1.8085099458694458
      ],
      "min": [
        -2.6919798851013184,
        0
      ],
      "type": "VEC2"
    },
    {
      "bufferView": 0,
      "byteOffset": 153768,
      "componentType": 5125,
      "count": 1215,
      "max": [
        748
      ],
      "min": [
        0
      ],
      "type": "SCALAR"
    },
    {
      "bufferView": 2,
      "byteOffset": 759216,
      "componentType": 5126,
      "count": 2386,
      "max": [
        1241.0799560546875,
        292.71600341796875,
        1299.449951171875
      ],
      "min": [
        -85.780799865722656,
        -40.204399108886719,
        350.92300415039062
      ],
      "type": "VEC3"
    },
    {
      "bufferView": 2,
      "byteOffset": 787848,
      "componentType": 5126,
      "count": 2386,
      "max": [
        1,
        1,
        1
      ],
      "min": [
        -1,
        -1,
        -1
      ],
      "type": "VEC3"
    },
    {
      "bufferView": 1,
      "byteOffset": 253072,
      "componentType": 5126,
      "count": 2386,
      "max": [
        52.238399505615234,
        35.020000457763672
      ],
      "min": [
        -45.544898986816406,
        -32.193099975585938
      ],
      "type": "VEC2"
    },
    {
      "bufferView": 0,
      "byteOffset": 158628,
      "componentType": 5125,
      "count": 4641,
      "max": [
        2385
      ],
      "min": [
        0
      ],
      "type": "SCALAR"
    },
    {
      "bufferView": 2,
      "byteOffset": 816480,
      "componentType": 5126,
      "count": 942,
      "max": [
        1241.0799560546875,
        253.90699768066406,
        1197.3399658203125
      ],
      "min": [
        -148.87199401855469,
        -47,
        412
      ],
      "type": "VEC3"
    },
    {
      "bufferView": 2,
      "byteOffset": 827784,
      "componentType": 5126,
      "count": 942,
      "max": [
        1,
        1,
        1
      ],
      "min": [
        -1,
        -1,
        -1
      ],
      "type": "VEC3"
    },
    {
      "bufferView": 1,
      "byteOffset": 272160,
      "componentType": 5126,
      "count": 942,
      "max": [
        47.701099395751953,
        16.921199798583984
      ],
      "min": [
        -51.492500305175781,
        -5.2289600372314453
      ],
      "type": "VEC2"
    },
    {
      "bufferView": 0,
      "byteOffset": 177192,
      "componentType": 5125,
      "count": 2145,
      "max": [
        941
      ],
      "min": [
        0
      ],
      "type": "SCALAR"
    }
  ],
  "asset": {
    "extras": {
      "author": "evilboris (https://sketchfab.com/evilboris)",
      "license": "CC-BY-4.0 (http://creativecommons.org/licenses/by/4.0/)",
      "source": "https://sketchfab.com/3d-models/tv-unit-85ef2234a45841e3bc651b821ca68f4d",
      "title": "TV Unit"
    },
    "generator": "Sketchfab-8.76.0",
    "version": "2.0"
  },
  "bufferViews": [
    {
      "buffer": 0,
      "byteLength": 185772,
      "byteOffset": 0,
      "name": "floatBufferViews",
      "target": 34963
    },
    {
      "buffer": 0,
      "byteLength": 279696,
      "byteOffset": 185772,
      "byteStride": 8,
      "name": "floatBufferViews",
      "target": 34962
    },
    {
      "buffer": 0,
      "byteLength": 839088,
      "byteOffset": 465468,
      "byteStride": 12,
      "name": "floatBufferViews",
      "target": 34962
    }
  ],
  "buffers": [
    {
      "byteLength": 1304556,
      "uri": "scene.bin"
    }
  ],
  "images": [
    {
      "uri": "textures/Black_Lines_3_baseColor.png"
    },
    {
      "uri": "textures/Wood_Veneer_01_baseColor.jpeg"
    },
    {
      "uri": "textures/material_baseColor.jpeg"
    }
  ],
  "materials": [
    {
      "doubleSided": true,
      "emissiveFactor": [
        0,
        0,
        0
      ],
      "name": "Black_Lines_3",
      "pbrMetallicRoughness": {
        "baseColorFactor": [
          1,
          1,
          1,
          1
        ],
        "baseColorTexture": {
          "index": 0,
          "texCoord": 0
        },
        "metallicFactor": 0,
        "roughnessFactor": 1
      }
    },
    {
      "doubleSided": true,
      "emissiveFactor": [
        0,
        0,
        0
      ],
      "name": "Build_Platform1",
      "pbrMetallicRoughness": {
        "baseColorFactor": [
          0.74902000000000002,
          0.74902000000000002,
          0.74902000000000002,
          1
        ],
        "metallicFactor": 0,
        "roughnessFactor": 1
      }
    },
    {
      "doubleSided": true,
      "emissiveFactor": [
        0,
        0,
        0
      ],
      "name": "FrontColor",
      "pbrMetallicRoughness": {
        "baseColorFactor": [
          1,
          1,
          1,
          1
        ],
        "metallicFactor": 1,
        "roughnessFactor": 0.40240391340000004
      }
    },
    {
      "doubleSided": true,
      "emissiveFactor": [
        0,
        0,
        0
      ],
      "name": "M_0129_WhiteSmoke",
      "pbrMetallicRoughness": {
        "baseColorFactor": [
          0.96078399999999997,
          0.96078399999999997,
          0.96078399999999997,
          1
        ],
        "metallicFactor": 0,
        "roughnessFactor": 1
      }
    },
    {
      "doubleSided": true,
      "emissiveFactor": [
        0,
        0,
        0
      ],
      "name": "M_0136_Charcoal",
      "pbrMetallicRoughness": {
        "baseColorFactor": [
          0.016789177999999998,
          0.016035699899999999,
          0.016035699899999999,
          1
        ],
        "metallicFactor": 0,
        "roughnessFactor": 1
      }
    },
    {
      "doubleSided": true,
      "emissiveFactor": [
        0,
        0,
        0
      ],
      "name": "M_3D_Text",
      "pbrMetallicRoughness": {
        "baseColorFactor": [
          0,
          0,
          0,
          1
        ],
        "metallicFactor": 0,
        "roughnessFactor": 1
      }
    },
    {
      "doubleSided": true,
      "emissiveFactor": [
        0,
        0,
        0
      ],
      "name": "Plastic___Textured___Regular",
      "pbrMetallicRoughness": {
        "baseColorFactor": [
          1,
          1,
          1,
          1
        ],
        "metallicFactor": 0,
        "roughnessFactor": 0
      }
    },
    {
      "doubleSided": true,
      "name": "Plastic___Translucent_Glossy__Gray",
      "pbrMetallicRoughness": {
        "baseColorFactor": [
          0,
          0,
          0,
          1
        ],
        "metallicFactor": 0,
        "roughnessFactor": 0
      }
    },
    {
      "doubleSided": true,
      "emissiveFactor": [
        0,
        0,
        0
      ],
      "name": "Steel___Satin",
      "pbrMetallicRoughness": {
        "baseColorFactor": [
          0.52156899999999995,
          0.66274500000000003,
          0.50980400000000003,
          1
        ],
        "metallicFactor": 0,
        "roughnessFactor": 1
      }
    },
    {
      "doubleSided": true,
      "name": "Wood_Veneer_01",
      "pbrMetallicRoughness": {
        "baseColorFactor": [
          1,
          1,
          1,
          1
        ],
        "baseColorTexture": {
          "index": 1,
          "texCoord": 0
        },
        "metallicFactor": 0,
        "roughnessFactor": 1
      }
    },
    {
      "doubleSided": true,
      "name": "material",
      "pbrMetallicRoughness": {
        "baseColorFactor": [
          1,
          1,
          1,
          1
        ],
        "baseColorTexture": {
          "index": 2,
          "texCoord": 0
        },
        "metallicFactor": 0,
        "roughnessFactor": 0.074058591398568741
      }
    }
  ],
  "meshes": [
    {
      "primitives": [
        {
          "attributes": {
            "NORMAL": 1,
            "POSITION": 0,
            "TEXCOORD_0": 2
          },
          "indices": 3,
          "material": 0,
          "mode": 4
        }
      ]
    },
    {
      "primitives": [
        {
          "attributes": {
            "NORMAL": 5,
            "POSITION": 4,
            "TEXCOORD_0": 6
          },
          "indices": 7,
          "material": 7,
          "mode": 4
        }
      ]
    },
    {
      "primitives": [
        {
          "attributes": {
            "NORMAL": 9,
            "POSITION": 8,
            "TEXCOORD_0": 10
          },
          "indices": 11,
          "material": 8,
          "mode": 4
        }
      ]
    },
    {
      "primitives": [
        {
          "attributes": {
            "NORMAL": 13,
            "POSITION": 12,
            "TEXCOORD_0": 14
          },
          "indices": 15,
          "material": 10,
          "mode": 4
        }
      ]
    },
    {
      "primitives": [
        {
          "attributes": {
            "NORMAL": 17,
            "POSITION": 16,
            "TEXCOORD_0": 18
          },
          "indices": 19,
          "material": 1,
          "mode": 4
        }
      ]
    },
    {
      "primitives": [
        {
          "attributes": {
            "NORMAL": 21,
            "POSITION": 20,
            "TEXCOORD_0": 22
          },
          "indices": 23,
          "material": 3,
          "mode": 4
        }
      ]
    },
    {
      "primitives": [
        {
          "attributes": {
            "NORMAL": 25,
            "POSITION": 24,
            "TEXCOORD_0": 26
          },
          "indices": 27,
          "material": 5,
          "mode": 4
        }
      ]
    },
    {
      "primitives": [
        {
          "attributes": {
            "NORMAL": 29,
            "POSITION": 28,
            "TEXCOORD_0": 30
          },
          "indices": 31,
          "material": 6,
          "mode": 4
        }
      ]
    },
    {
      "primitives": [
        {
          "attributes": {
            "NORMAL": 33,
            "POSITION": 32,
            "TEXCOORD_0": 34
          },
          "indices": 35,
          "material": 9,
          "mode": 4
        }
      ]
    },
    {
      "primitives": [
        {
          "attributes": {
            "NORMAL": 37,
            "POSITION": 36,
            "TEXCOORD_0": 38
          },
          "indices": 39,
          "material": 2,
          "mode": 4
        }
      ]
    },
    {
      "primitives": [
        {
          "attributes": {
            "NORMAL": 41,
            "POSITION": 40,
            "TEXCOORD_0": 42
          },
          "indices": 43,
          "material": 4,
          "mode": 4
        }
      ]
    }
  ],
  "nodes": [
    {
      "children": [
        1
      ],
      "name": "RootNode (gltf orientation matrix)",
      "rotation": [
        -0.70710678118654746,
        -0,
        -0,
        0.70710678118654757
      ]
    },
    {
      "children": [
        2
      ],
      "name": "RootNode (model correction matrix)"
    },
    {
      "children": [
        3,
        4,
        5,
        6,
        7,
        8,
        9,
        10,
        11,
        12,
        13
      ],
      "name": "tv unit2.obj.cleaner.materialmerger.gles"
    },
    {
      "mesh": 0,
      "name": ""
    },
    {
      "mesh": 1,
      "name": ""
    },
    {
      "mesh": 2,
      "name": ""
    },
    {
      "mesh": 3,
      "name": ""
    },
    {
      "mesh": 4,
      "name": ""
    },
    {
      "mesh": 5,
      "name": ""
    },
    {
      "mesh": 6,
      "name": ""
    },
    {
      "mesh": 7,
      "name": ""
    },
    {
      "mesh": 8,
      "name": ""
    },
    {
      "mesh": 9,
      "name": ""
    },
    {
      "mesh": 10,
      "name": ""
    }
  ],
  "samplers": [
    {
      "magFilter": 9729,
      "minFilter": 9987,
      "wrapS": 10497,
      "wrapT": 10497
    }
  ],
  "scene": 0,
  "scenes": [
    {
      "name": "OSG_Scene",
      "nodes": [
        0
      ]
    }
  ],
  "textures": [
    {
      "sampler": 0,
      "source": 0
    },
    {
      "sampler": 0,
      "source": 1
    },
    {
      "sampler": 0,
      "source": 2
    }
  ]
}

