{
	"asset":{
		"generator":"Khronos glTF Blender I/O v3.5.30",
		"version":"2.0"
	},
	"scene":0,
	"scenes":[
		{
			"name":"Scene",
			"nodes":[
				0,
				3
			]
		}
	],
	"nodes":[
		{
			"mesh":0,
			"name":"Marco",
			"rotation":[
				0,
				-1,
				0,
				4.371138828673793e-08
			],
			"scale":[
				-1.0091421604156494,
				-1,
				-0.9615367650985718
			],
			"translation":[
				0.05682692676782608,
				1.1221306324005127,
				0.4757174849510193
			]
		},
		{
			"mesh":1,
			"name":"G-__557580.001",
			"translation":[
				0.0900505781173706,
				0.12585024535655975,
				-0.06438851356506348
			]
		},
		{
			"children":[
				1
			],
			"mesh":2,
			"name":"G-__557580",
			"translation":[
				-0.11357834190130234,
				-0.12212145328521729,
				0.8126559853553772
			]
		},
		{
			"children":[
				2
			],
			"mesh":3,
			"name":"Porta",
			"translation":[
				0.07193104922771454,
				0,
				-0.3929939866065979
			]
		}
	],
	"animations":[
		{
			"channels":[
				{
					"sampler":0,
					"target":{
						"node":0,
						"path":"translation"
					}
				},
				{
					"sampler":1,
					"target":{
						"node":0,
						"path":"rotation"
					}
				}
			],
			"name":"MarcoAction",
			"samplers":[
				{
					"input":30,
					"interpolation":"LINEAR",
					"output":31
				},
				{
					"input":30,
					"interpolation":"LINEAR",
					"output":32
				}
			]
		},
		{
			"channels":[
				{
					"sampler":0,
					"target":{
						"node":3,
						"path":"translation"
					}
				},
				{
					"sampler":1,
					"target":{
						"node":3,
						"path":"rotation"
					}
				}
			],
			"name":"AbrirPorta",
			"samplers":[
				{
					"input":30,
					"interpolation":"LINEAR",
					"output":33
				},
				{
					"input":30,
					"interpolation":"LINEAR",
					"output":34
				}
			]
		},
		{
			"channels":[
				{
					"sampler":0,
					"target":{
						"node":2,
						"path":"translation"
					}
				},
				{
					"sampler":1,
					"target":{
						"node":2,
						"path":"rotation"
					}
				}
			],
			"name":"G-__557580Action",
			"samplers":[
				{
					"input":30,
					"interpolation":"LINEAR",
					"output":35
				},
				{
					"input":30,
					"interpolation":"LINEAR",
					"output":36
				}
			]
		},
		{
			"channels":[
				{
					"sampler":0,
					"target":{
						"node":1,
						"path":"translation"
					}
				},
				{
					"sampler":1,
					"target":{
						"node":1,
						"path":"rotation"
					}
				}
			],
			"name":"MoverTrinco",
			"samplers":[
				{
					"input":30,
					"interpolation":"LINEAR",
					"output":37
				},
				{
					"input":30,
					"interpolation":"LINEAR",
					"output":38
				}
			]
		}
	],
	"materials":[
		{
			"doubleSided":true,
			"name":"Material",
			"pbrMetallicRoughness":{
				"baseColorFactor":[
					0.800000011920929,
					0.800000011920929,
					0.800000011920929,
					1
				],
				"metallicFactor":0,
				"roughnessFactor":0.5
			}
		},
		{
			"doubleSided":true,
			"name":"Niraj_Shoe_Stitching",
			"pbrMetallicRoughness":{
				"baseColorFactor":[
					0.47044023871421814,
					0.25491586327552795,
					0.10615606606006622,
					1
				],
				"metallicFactor":0,
				"roughnessFactor":0.4000000059604645
			}
		},
		{
			"doubleSided":true,
			"name":"*",
			"pbrMetallicRoughness":{
				"baseColorFactor":[
					0.04614884406328201,
					0.04614884406328201,
					0.04614884406328201,
					1
				],
				"metallicFactor":0,
				"roughnessFactor":0.4000000059604645
			}
		},
		{
			"doubleSided":true,
			"name":"<auto>4",
			"pbrMetallicRoughness":{
				"baseColorFactor":[
					1,
					1,
					0.21576440334320068,
					1
				],
				"metallicFactor":0,
				"roughnessFactor":0.4000000059604645
			}
		}
	],
	"meshes":[
		{
			"name":"G-__557553",
			"primitives":[
				{
					"attributes":{
						"POSITION":0,
						"NORMAL":1
					},
					"indices":2,
					"material":0
				},
				{
					"attributes":{
						"POSITION":3,
						"NORMAL":4
					},
					"indices":5,
					"material":1
				},
				{
					"attributes":{
						"POSITION":6,
						"NORMAL":7
					},
					"indices":8,
					"material":2
				}
			]
		},
		{
			"name":"G-__557580.001",
			"primitives":[
				{
					"attributes":{
						"POSITION":9,
						"NORMAL":10
					},
					"indices":11,
					"material":0
				}
			]
		},
		{
			"name":"G-__557580",
			"primitives":[
				{
					"attributes":{
						"POSITION":12,
						"NORMAL":13
					},
					"indices":14,
					"material":0
				},
				{
					"attributes":{
						"POSITION":15,
						"NORMAL":16
					},
					"indices":17,
					"material":1
				},
				{
					"attributes":{
						"POSITION":18,
						"NORMAL":19
					},
					"indices":20,
					"material":3
				}
			]
		},
		{
			"name":"G-__557571",
			"primitives":[
				{
					"attributes":{
						"POSITION":21,
						"NORMAL":22
					},
					"indices":23,
					"material":2
				},
				{
					"attributes":{
						"POSITION":24,
						"NORMAL":25
					},
					"indices":26,
					"material":1
				},
				{
					"attributes":{
						"POSITION":27,
						"NORMAL":28
					},
					"indices":29,
					"material":0
				}
			]
		}
	],
	"accessors":[
		{
			"bufferView":0,
			"componentType":5126,
			"count":853,
			"max":[
				0.021000562235713005,
				2.1770126819610596,
				0.0054161748848855495
			],
			"min":[
				-0.14300061762332916,
				-1.7630259918632873e-08,
				-0.9778610467910767
			],
			"type":"VEC3"
		},
		{
			"bufferView":1,
			"componentType":5126,
			"count":853,
			"type":"VEC3"
		},
		{
			"bufferView":2,
			"componentType":5123,
			"count":1587,
			"type":"SCALAR"
		},
		{
			"bufferView":3,
			"componentType":5126,
			"count":2836,
			"max":[
				0.0006829127669334412,
				2.0161752700805664,
				-0.9031180143356323
			],
			"min":[
				-0.012694786302745342,
				0.22857534885406494,
				-0.9051228165626526
			],
			"type":"VEC3"
		},
		{
			"bufferView":4,
			"componentType":5126,
			"count":2836,
			"type":"VEC3"
		},
		{
			"bufferView":5,
			"componentType":5123,
			"count":3474,
			"type":"SCALAR"
		},
		{
			"bufferView":6,
			"componentType":5126,
			"count":7273,
			"max":[
				0.020501721650362015,
				2.0241751670837402,
				-0.8979179859161377
			],
			"min":[
				-0.01616307906806469,
				0.2205754518508911,
				-0.9094128012657166
			],
			"type":"VEC3"
		},
		{
			"bufferView":7,
			"componentType":5126,
			"count":7273,
			"type":"VEC3"
		},
		{
			"bufferView":8,
			"componentType":5123,
			"count":11646,
			"type":"SCALAR"
		},
		{
			"bufferView":9,
			"componentType":5126,
			"count":5075,
			"max":[
				0.0892760157585144,
				0.01177184283733368,
				0.010997351258993149
			],
			"min":[
				-0.0900505781173706,
				-0.010252334177494049,
				-0.14701737463474274
			],
			"type":"VEC3"
		},
		{
			"bufferView":10,
			"componentType":5126,
			"count":5075,
			"type":"VEC3"
		},
		{
			"bufferView":11,
			"componentType":5123,
			"count":6750,
			"type":"SCALAR"
		},
		{
			"bufferView":12,
			"componentType":5126,
			"count":3339,
			"max":[
				0.11416329443454742,
				0.19500000774860382,
				0
			],
			"min":[
				0.06516329199075699,
				0,
				-0.08775325864553452
			],
			"type":"VEC3"
		},
		{
			"bufferView":13,
			"componentType":5126,
			"count":3339,
			"type":"VEC3"
		},
		{
			"bufferView":14,
			"componentType":5123,
			"count":6432,
			"type":"SCALAR"
		},
		{
			"bufferView":15,
			"componentType":5126,
			"count":457,
			"max":[
				0.09467626363039017,
				0.18800008296966553,
				-0.010853220708668232
			],
			"min":[
				0.08467568457126617,
				0.006999945733696222,
				-0.012353239580988884
			],
			"type":"VEC3"
		},
		{
			"bufferView":16,
			"componentType":5126,
			"count":457,
			"type":"VEC3"
		},
		{
			"bufferView":17,
			"componentType":5123,
			"count":816,
			"type":"SCALAR"
		},
		{
			"bufferView":18,
			"componentType":5126,
			"count":117,
			"max":[
				0.11356329172849655,
				0.062459997832775116,
				-0.060153257101774216
			],
			"min":[
				0.06576329469680786,
				0.03996000066399574,
				-0.06865325570106506
			],
			"type":"VEC3"
		},
		{
			"bufferView":19,
			"componentType":5126,
			"count":117,
			"type":"VEC3"
		},
		{
			"bufferView":20,
			"componentType":5123,
			"count":288,
			"type":"SCALAR"
		},
		{
			"bufferView":21,
			"componentType":5126,
			"count":2629,
			"max":[
				0.005584947764873505,
				0.8985552787780762,
				0.005330204963684082
			],
			"min":[
				-0.031415052711963654,
				-0.8990447521209717,
				-0.005669794976711273
			],
			"type":"VEC3"
		},
		{
			"bufferView":22,
			"componentType":5126,
			"count":2629,
			"type":"VEC3"
		},
		{
			"bufferView":23,
			"componentType":5123,
			"count":4734,
			"type":"SCALAR"
		},
		{
			"bufferView":24,
			"componentType":5126,
			"count":4246,
			"max":[
				-0.01441505178809166,
				0.8935552835464478,
				0.0013026725500822067
			],
			"min":[
				-0.027915053069591522,
				-0.8940447568893433,
				-0.0006697950884699821
			],
			"type":"VEC3"
		},
		{
			"bufferView":25,
			"componentType":5126,
			"count":4246,
			"type":"VEC3"
		},
		{
			"bufferView":26,
			"componentType":5123,
			"count":7218,
			"type":"SCALAR"
		},
		{
			"bufferView":27,
			"componentType":5126,
			"count":688,
			"max":[
				-0.0064150504767894745,
				1.0509551763534546,
				0.8013032078742981
			],
			"min":[
				-0.041415050625801086,
				-1.0490447282791138,
				0.0013031959533691406
			],
			"type":"VEC3"
		},
		{
			"bufferView":28,
			"componentType":5126,
			"count":688,
			"type":"VEC3"
		},
		{
			"bufferView":29,
			"componentType":5123,
			"count":1212,
			"type":"SCALAR"
		},
		{
			"bufferView":30,
			"componentType":5126,
			"count":60,
			"max":[
				2
			],
			"min":[
				0.03333333333333333
			],
			"type":"SCALAR"
		},
		{
			"bufferView":31,
			"componentType":5126,
			"count":60,
			"type":"VEC3"
		},
		{
			"bufferView":32,
			"componentType":5126,
			"count":60,
			"type":"VEC4"
		},
		{
			"bufferView":33,
			"componentType":5126,
			"count":60,
			"type":"VEC3"
		},
		{
			"bufferView":34,
			"componentType":5126,
			"count":60,
			"type":"VEC4"
		},
		{
			"bufferView":35,
			"componentType":5126,
			"count":60,
			"type":"VEC3"
		},
		{
			"bufferView":36,
			"componentType":5126,
			"count":60,
			"type":"VEC4"
		},
		{
			"bufferView":37,
			"componentType":5126,
			"count":60,
			"type":"VEC3"
		},
		{
			"bufferView":38,
			"componentType":5126,
			"count":60,
			"type":"VEC4"
		}
	],
	"bufferViews":[
		{
			"buffer":0,
			"byteLength":10236,
			"byteOffset":0,
			"target":34962
		},
		{
			"buffer":0,
			"byteLength":10236,
			"byteOffset":10236,
			"target":34962
		},
		{
			"buffer":0,
			"byteLength":3174,
			"byteOffset":20472,
			"target":34963
		},
		{
			"buffer":0,
			"byteLength":34032,
			"byteOffset":23648,
			"target":34962
		},
		{
			"buffer":0,
			"byteLength":34032,
			"byteOffset":57680,
			"target":34962
		},
		{
			"buffer":0,
			"byteLength":6948,
			"byteOffset":91712,
			"target":34963
		},
		{
			"buffer":0,
			"byteLength":87276,
			"byteOffset":98660,
			"target":34962
		},
		{
			"buffer":0,
			"byteLength":87276,
			"byteOffset":185936,
			"target":34962
		},
		{
			"buffer":0,
			"byteLength":23292,
			"byteOffset":273212,
			"target":34963
		},
		{
			"buffer":0,
			"byteLength":60900,
			"byteOffset":296504,
			"target":34962
		},
		{
			"buffer":0,
			"byteLength":60900,
			"byteOffset":357404,
			"target":34962
		},
		{
			"buffer":0,
			"byteLength":13500,
			"byteOffset":418304,
			"target":34963
		},
		{
			"buffer":0,
			"byteLength":40068,
			"byteOffset":431804,
			"target":34962
		},
		{
			"buffer":0,
			"byteLength":40068,
			"byteOffset":471872,
			"target":34962
		},
		{
			"buffer":0,
			"byteLength":12864,
			"byteOffset":511940,
			"target":34963
		},
		{
			"buffer":0,
			"byteLength":5484,
			"byteOffset":524804,
			"target":34962
		},
		{
			"buffer":0,
			"byteLength":5484,
			"byteOffset":530288,
			"target":34962
		},
		{
			"buffer":0,
			"byteLength":1632,
			"byteOffset":535772,
			"target":34963
		},
		{
			"buffer":0,
			"byteLength":1404,
			"byteOffset":537404,
			"target":34962
		},
		{
			"buffer":0,
			"byteLength":1404,
			"byteOffset":538808,
			"target":34962
		},
		{
			"buffer":0,
			"byteLength":576,
			"byteOffset":540212,
			"target":34963
		},
		{
			"buffer":0,
			"byteLength":31548,
			"byteOffset":540788,
			"target":34962
		},
		{
			"buffer":0,
			"byteLength":31548,
			"byteOffset":572336,
			"target":34962
		},
		{
			"buffer":0,
			"byteLength":9468,
			"byteOffset":603884,
			"target":34963
		},
		{
			"buffer":0,
			"byteLength":50952,
			"byteOffset":613352,
			"target":34962
		},
		{
			"buffer":0,
			"byteLength":50952,
			"byteOffset":664304,
			"target":34962
		},
		{
			"buffer":0,
			"byteLength":14436,
			"byteOffset":715256,
			"target":34963
		},
		{
			"buffer":0,
			"byteLength":8256,
			"byteOffset":729692,
			"target":34962
		},
		{
			"buffer":0,
			"byteLength":8256,
			"byteOffset":737948,
			"target":34962
		},
		{
			"buffer":0,
			"byteLength":2424,
			"byteOffset":746204,
			"target":34963
		},
		{
			"buffer":0,
			"byteLength":240,
			"byteOffset":748628
		},
		{
			"buffer":0,
			"byteLength":720,
			"byteOffset":748868
		},
		{
			"buffer":0,
			"byteLength":960,
			"byteOffset":749588
		},
		{
			"buffer":0,
			"byteLength":720,
			"byteOffset":750548
		},
		{
			"buffer":0,
			"byteLength":960,
			"byteOffset":751268
		},
		{
			"buffer":0,
			"byteLength":720,
			"byteOffset":752228
		},
		{
			"buffer":0,
			"byteLength":960,
			"byteOffset":752948
		},
		{
			"buffer":0,
			"byteLength":720,
			"byteOffset":753908
		},
		{
			"buffer":0,
			"byteLength":960,
			"byteOffset":754628
		}
	],
	"buffers":[
		{
			"byteLength":755588,
			"uri":"data:application/octet-stream;base64,"
		}
	]
}
