{
	"asset":{
		"generator":"Khronos glTF Blender I/O v3.6.27",
		"version":"2.0"
	},
	"extensionsUsed":[
		"KHR_materials_specular",
		"KHR_materials_ior"
	],
	"scene":0,
	"scenes":[
		{
			"name":"Scene",
			"nodes":[
				0,
				2
			]
		}
	],
	"nodes":[
		{
			"mesh":0,
			"name":"Marco",
			"rotation":[
				0,
				-1,
				0,
				4.371138828673793e-08
			],
			"scale":[
				-1.0091421604156494,
				-1,
				-0.9615367650985718
			],
			"translation":[
				-0.08565311878919601,
				1.1512136459350586,
				0.5189148187637329
			]
		},
		{
			"mesh":1,
			"name":"Trinco",
			"translation":[
				-0.023748425766825676,
				-0.03205100819468498,
				0.7538784742355347
			]
		},
		{
			"children":[
				1
			],
			"mesh":2,
			"name":"PortaFrizzata",
			"rotation":[
				0,
				-1,
				0,
				4.371138828673793e-08
			],
			"scale":[
				-1,
				-1,
				-1.1269999742507935
			],
			"translation":[
				0.07384695112705231,
				0,
				-0.45011410117149353
			]
		}
	],
	"animations":[
		{
			"channels":[
				{
					"sampler":0,
					"target":{
						"node":2,
						"path":"translation"
					}
				},
				{
					"sampler":1,
					"target":{
						"node":2,
						"path":"rotation"
					}
				},
				{
					"sampler":2,
					"target":{
						"node":1,
						"path":"translation"
					}
				},
				{
					"sampler":3,
					"target":{
						"node":1,
						"path":"rotation"
					}
				},
				{
					"sampler":4,
					"target":{
						"node":1,
						"path":"scale"
					}
				}
			],
			"name":"AbrirPorta",
			"samplers":[
				{
					"input":36,
					"interpolation":"STEP",
					"output":37
				},
				{
					"input":38,
					"interpolation":"LINEAR",
					"output":39
				},
				{
					"input":36,
					"interpolation":"LINEAR",
					"output":40
				},
				{
					"input":38,
					"interpolation":"LINEAR",
					"output":41
				},
				{
					"input":38,
					"interpolation":"LINEAR",
					"output":42
				}
			]
		}
	],
	"materials":[
		{
			"doubleSided":true,
			"name":"Porta",
			"pbrMetallicRoughness":{
				"baseColorFactor":[
					0,
					0,
					0,
					1
				],
				"metallicFactor":0.20000000298023224,
				"roughnessFactor":0.8299999833106995
			}
		},
		{
			"doubleSided":true,
			"name":"Dobradica",
			"pbrMetallicRoughness":{
				"baseColorFactor":[
					0.8877925276756287,
					0.8877925276756287,
					0.8877925276756287,
					1
				],
				"roughnessFactor":0.2800000011920929
			}
		},
		{
			"doubleSided":true,
			"name":"Parafuso",
			"pbrMetallicRoughness":{
				"roughnessFactor":0.2800000011920929
			}
		},
		{
			"doubleSided":true,
			"name":"Fechadura",
			"pbrMetallicRoughness":{
				"baseColorFactor":[
					0.3134006857872009,
					0.3134006857872009,
					0.3134006857872009,
					1
				],
				"roughnessFactor":0.2800000011920929
			}
		},
		{
			"doubleSided":true,
			"extensions":{
				"KHR_materials_specular":{
					"specularColorFactor":[
						0,
						0,
						0
					]
				},
				"KHR_materials_ior":{
					"ior":1.4500000476837158
				}
			},
			"name":"Preto",
			"pbrMetallicRoughness":{
				"baseColorFactor":[
					0,
					0,
					0,
					1
				],
				"metallicFactor":0
			}
		}
	],
	"meshes":[
		{
			"name":"G-__573663",
			"primitives":[
				{
					"attributes":{
						"POSITION":0,
						"NORMAL":1,
						"TEXCOORD_0":2
					},
					"indices":3,
					"material":0
				},
				{
					"attributes":{
						"POSITION":4,
						"NORMAL":5,
						"TEXCOORD_0":6
					},
					"indices":7,
					"material":1
				},
				{
					"attributes":{
						"POSITION":8,
						"NORMAL":9,
						"TEXCOORD_0":10
					},
					"indices":11,
					"material":2
				}
			]
		},
		{
			"name":"G-__573699.001",
			"primitives":[
				{
					"attributes":{
						"POSITION":12,
						"NORMAL":13,
						"TEXCOORD_0":14
					},
					"indices":15,
					"material":3
				}
			]
		},
		{
			"name":"G-__573699",
			"primitives":[
				{
					"attributes":{
						"POSITION":16,
						"NORMAL":17,
						"TEXCOORD_0":18
					},
					"indices":19,
					"material":0
				},
				{
					"attributes":{
						"POSITION":20,
						"NORMAL":21,
						"TEXCOORD_0":22
					},
					"indices":23,
					"material":3
				},
				{
					"attributes":{
						"POSITION":24,
						"NORMAL":25,
						"TEXCOORD_0":26
					},
					"indices":27,
					"material":2
				},
				{
					"attributes":{
						"POSITION":28,
						"NORMAL":29,
						"TEXCOORD_0":30
					},
					"indices":31,
					"material":4
				},
				{
					"attributes":{
						"POSITION":32,
						"NORMAL":33,
						"TEXCOORD_0":34
					},
					"indices":35,
					"material":1
				}
			]
		}
	],
	"accessors":[
		{
			"bufferView":0,
			"componentType":5126,
			"count":687,
			"max":[
				0.16399984061717987,
				2.1770124435424805,
				0.005416174419224262
			],
			"min":[
				-6.29927114914608e-07,
				1.533674520715067e-08,
				-1.0816428661346436
			],
			"type":"VEC3"
		},
		{
			"bufferView":1,
			"componentType":5126,
			"count":687,
			"type":"VEC3"
		},
		{
			"bufferView":2,
			"componentType":5126,
			"count":687,
			"type":"VEC2"
		},
		{
			"bufferView":3,
			"componentType":5123,
			"count":1332,
			"type":"SCALAR"
		},
		{
			"bufferView":4,
			"componentType":5126,
			"count":5642,
			"max":[
				0.16350099444389343,
				2.0241754055023193,
				-1.001907229423523
			],
			"min":[
				0.12683619558811188,
				0.22057569026947021,
				-1.0133472681045532
			],
			"type":"VEC3"
		},
		{
			"bufferView":5,
			"componentType":5126,
			"count":5642,
			"type":"VEC3"
		},
		{
			"bufferView":6,
			"componentType":5126,
			"count":5642,
			"type":"VEC2"
		},
		{
			"bufferView":7,
			"componentType":5123,
			"count":15468,
			"type":"SCALAR"
		},
		{
			"bufferView":8,
			"componentType":5126,
			"count":1569,
			"max":[
				0.14368219673633575,
				2.0161755084991455,
				-1.0071072578430176
			],
			"min":[
				0.1303045004606247,
				0.22857558727264404,
				-1.009112000465393
			],
			"type":"VEC3"
		},
		{
			"bufferView":9,
			"componentType":5126,
			"count":1569,
			"type":"VEC3"
		},
		{
			"bufferView":10,
			"componentType":5126,
			"count":1569,
			"type":"VEC2"
		},
		{
			"bufferView":11,
			"componentType":5123,
			"count":3546,
			"type":"SCALAR"
		},
		{
			"bufferView":12,
			"componentType":5126,
			"count":1488,
			"max":[
				0.08940726518630981,
				0.009491603821516037,
				0.008838236331939697
			],
			"min":[
				-0.0899193286895752,
				-0.0125325508415699,
				-0.13137006759643555
			],
			"type":"VEC3"
		},
		{
			"bufferView":13,
			"componentType":5126,
			"count":1488,
			"type":"VEC3"
		},
		{
			"bufferView":14,
			"componentType":5126,
			"count":1488,
			"type":"VEC2"
		},
		{
			"bufferView":15,
			"componentType":5123,
			"count":6750,
			"type":"SCALAR"
		},
		{
			"bufferView":16,
			"componentType":5126,
			"count":416,
			"max":[
				-0.006504472345113754,
				1.0199618339538574,
				0.8000180721282959
			],
			"min":[
				-0.041504472494125366,
				-1.080038070678711,
				0.0014377832412719727
			],
			"type":"VEC3"
		},
		{
			"bufferView":17,
			"componentType":5126,
			"count":416,
			"type":"VEC3"
		},
		{
			"bufferView":18,
			"componentType":5126,
			"count":416,
			"type":"VEC2"
		},
		{
			"bufferView":19,
			"componentType":5123,
			"count":1020,
			"type":"SCALAR"
		},
		{
			"bufferView":20,
			"componentType":5126,
			"count":2316,
			"max":[
				0.0004955306649208069,
				0.09303855895996094,
				0.8100913166999817
			],
			"min":[
				-0.048504479229450226,
				-0.10196143388748169,
				0.7322268486022949
			],
			"type":"VEC3"
		},
		{
			"bufferView":21,
			"componentType":5126,
			"count":2316,
			"type":"VEC3"
		},
		{
			"bufferView":22,
			"componentType":5126,
			"count":2316,
			"type":"VEC2"
		},
		{
			"bufferView":23,
			"componentType":5123,
			"count":6432,
			"type":"SCALAR"
		},
		{
			"bufferView":24,
			"componentType":5126,
			"count":3038,
			"max":[
				-0.01450439915060997,
				0.8649619817733765,
				0.8004611134529114
			],
			"min":[
				-0.02899208664894104,
				-0.9226380586624146,
				-0.00030297040939331055
			],
			"type":"VEC3"
		},
		{
			"bufferView":25,
			"componentType":5126,
			"count":3038,
			"type":"VEC3"
		},
		{
			"bufferView":26,
			"componentType":5126,
			"count":3038,
			"type":"VEC2"
		},
		{
			"bufferView":27,
			"componentType":5123,
			"count":8034,
			"type":"SCALAR"
		},
		{
			"bufferView":28,
			"componentType":5126,
			"count":100,
			"max":[
				-0.00010447204113006592,
				0.053078532218933105,
				0.7567166090011597
			],
			"min":[
				-0.047904469072818756,
				0.03057861328125,
				0.7491744756698608
			],
			"type":"VEC3"
		},
		{
			"bufferView":29,
			"componentType":5126,
			"count":100,
			"type":"VEC3"
		},
		{
			"bufferView":30,
			"componentType":5126,
			"count":100,
			"type":"VEC2"
		},
		{
			"bufferView":31,
			"componentType":5123,
			"count":288,
			"type":"SCALAR"
		},
		{
			"bufferView":32,
			"componentType":5126,
			"count":1793,
			"max":[
				0.005495600402355194,
				0.8699619770050049,
				0.00502091646194458
			],
			"min":[
				-0.031504400074481964,
				-0.927638053894043,
				-0.004739522933959961
			],
			"type":"VEC3"
		},
		{
			"bufferView":33,
			"componentType":5126,
			"count":1793,
			"type":"VEC3"
		},
		{
			"bufferView":34,
			"componentType":5126,
			"count":1793,
			"type":"VEC2"
		},
		{
			"bufferView":35,
			"componentType":5123,
			"count":4848,
			"type":"SCALAR"
		},
		{
			"bufferView":36,
			"componentType":5126,
			"count":2,
			"max":[
				2
			],
			"min":[
				0.016666666666666666
			],
			"type":"SCALAR"
		},
		{
			"bufferView":37,
			"componentType":5126,
			"count":2,
			"type":"VEC3"
		},
		{
			"bufferView":38,
			"componentType":5126,
			"count":120,
			"max":[
				2
			],
			"min":[
				0.016666666666666666
			],
			"type":"SCALAR"
		},
		{
			"bufferView":39,
			"componentType":5126,
			"count":120,
			"type":"VEC4"
		},
		{
			"bufferView":40,
			"componentType":5126,
			"count":2,
			"type":"VEC3"
		},
		{
			"bufferView":41,
			"componentType":5126,
			"count":120,
			"type":"VEC4"
		},
		{
			"bufferView":42,
			"componentType":5126,
			"count":120,
			"type":"VEC3"
		}
	],
	"bufferViews":[
		{
			"buffer":0,
			"byteLength":8244,
			"byteOffset":0,
			"target":34962
		},
		{
			"buffer":0,
			"byteLength":8244,
			"byteOffset":8244,
			"target":34962
		},
		{
			"buffer":0,
			"byteLength":5496,
			"byteOffset":16488,
			"target":34962
		},
		{
			"buffer":0,
			"byteLength":2664,
			"byteOffset":21984,
			"target":34963
		},
		{
			"buffer":0,
			"byteLength":67704,
			"byteOffset":24648,
			"target":34962
		},
		{
			"buffer":0,
			"byteLength":67704,
			"byteOffset":92352,
			"target":34962
		},
		{
			"buffer":0,
			"byteLength":45136,
			"byteOffset":160056,
			"target":34962
		},
		{
			"buffer":0,
			"byteLength":30936,
			"byteOffset":205192,
			"target":34963
		},
		{
			"buffer":0,
			"byteLength":18828,
			"byteOffset":236128,
			"target":34962
		},
		{
			"buffer":0,
			"byteLength":18828,
			"byteOffset":254956,
			"target":34962
		},
		{
			"buffer":0,
			"byteLength":12552,
			"byteOffset":273784,
			"target":34962
		},
		{
			"buffer":0,
			"byteLength":7092,
			"byteOffset":286336,
			"target":34963
		},
		{
			"buffer":0,
			"byteLength":17856,
			"byteOffset":293428,
			"target":34962
		},
		{
			"buffer":0,
			"byteLength":17856,
			"byteOffset":311284,
			"target":34962
		},
		{
			"buffer":0,
			"byteLength":11904,
			"byteOffset":329140,
			"target":34962
		},
		{
			"buffer":0,
			"byteLength":13500,
			"byteOffset":341044,
			"target":34963
		},
		{
			"buffer":0,
			"byteLength":4992,
			"byteOffset":354544,
			"target":34962
		},
		{
			"buffer":0,
			"byteLength":4992,
			"byteOffset":359536,
			"target":34962
		},
		{
			"buffer":0,
			"byteLength":3328,
			"byteOffset":364528,
			"target":34962
		},
		{
			"buffer":0,
			"byteLength":2040,
			"byteOffset":367856,
			"target":34963
		},
		{
			"buffer":0,
			"byteLength":27792,
			"byteOffset":369896,
			"target":34962
		},
		{
			"buffer":0,
			"byteLength":27792,
			"byteOffset":397688,
			"target":34962
		},
		{
			"buffer":0,
			"byteLength":18528,
			"byteOffset":425480,
			"target":34962
		},
		{
			"buffer":0,
			"byteLength":12864,
			"byteOffset":444008,
			"target":34963
		},
		{
			"buffer":0,
			"byteLength":36456,
			"byteOffset":456872,
			"target":34962
		},
		{
			"buffer":0,
			"byteLength":36456,
			"byteOffset":493328,
			"target":34962
		},
		{
			"buffer":0,
			"byteLength":24304,
			"byteOffset":529784,
			"target":34962
		},
		{
			"buffer":0,
			"byteLength":16068,
			"byteOffset":554088,
			"target":34963
		},
		{
			"buffer":0,
			"byteLength":1200,
			"byteOffset":570156,
			"target":34962
		},
		{
			"buffer":0,
			"byteLength":1200,
			"byteOffset":571356,
			"target":34962
		},
		{
			"buffer":0,
			"byteLength":800,
			"byteOffset":572556,
			"target":34962
		},
		{
			"buffer":0,
			"byteLength":576,
			"byteOffset":573356,
			"target":34963
		},
		{
			"buffer":0,
			"byteLength":21516,
			"byteOffset":573932,
			"target":34962
		},
		{
			"buffer":0,
			"byteLength":21516,
			"byteOffset":595448,
			"target":34962
		},
		{
			"buffer":0,
			"byteLength":14344,
			"byteOffset":616964,
			"target":34962
		},
		{
			"buffer":0,
			"byteLength":9696,
			"byteOffset":631308,
			"target":34963
		},
		{
			"buffer":0,
			"byteLength":8,
			"byteOffset":641004
		},
		{
			"buffer":0,
			"byteLength":24,
			"byteOffset":641012
		},
		{
			"buffer":0,
			"byteLength":480,
			"byteOffset":641036
		},
		{
			"buffer":0,
			"byteLength":1920,
			"byteOffset":641516
		},
		{
			"buffer":0,
			"byteLength":24,
			"byteOffset":643436
		},
		{
			"buffer":0,
			"byteLength":1920,
			"byteOffset":643460
		},
		{
			"buffer":0,
			"byteLength":1440,
			"byteOffset":645380
		}
	],
	"buffers":[
		{
			"byteLength":646820,
			"uri":"PortaLisa90%28Preta%29.bin"
		}
	]
}
