{
	"asset":{
		"generator":"Khronos glTF Blender I/O v3.5.30",
		"version":"2.0"
	},
	"scene":0,
	"scenes":[
		{
			"name":"Scene",
			"nodes":[
				0,
				1,
				2
			]
		}
	],
	"nodes":[
		{
			"mesh":0,
			"name":"Porta",
			"translation":[
				0.038358233869075775,
				-1.0447300672531128,
				0.39385855197906494
			]
		},
		{
			"mesh":1,
			"name":"Marco",
			"rotation":[
				0,
				-1,
				0,
				4.371138828673793e-08
			],
			"scale":[
				-1.0091421604156494,
				-1,
				-0.9615367650985718
			],
			"translation":[
				-0.07963816821575165,
				1.1264452934265137,
				0.46126705408096313
			]
		},
		{
			"mesh":2,
			"name":"Trinco",
			"translation":[
				0.0561283677816391,
				0.008854731917381287,
				0.34076738357543945
			]
		}
	],
	"animations":[
		{
			"channels":[
				{
					"sampler":0,
					"target":{
						"node":2,
						"path":"translation"
					}
				},
				{
					"sampler":1,
					"target":{
						"node":2,
						"path":"rotation"
					}
				}
			],
			"name":"MexeTrinco",
			"samplers":[
				{
					"input":24,
					"interpolation":"LINEAR",
					"output":25
				},
				{
					"input":24,
					"interpolation":"LINEAR",
					"output":26
				}
			]
		}
	],
	"materials":[
		{
			"doubleSided":true,
			"name":"Material",
			"pbrMetallicRoughness":{
				"baseColorFactor":[
					0.800000011920929,
					0.800000011920929,
					0.800000011920929,
					1
				],
				"metallicFactor":0,
				"roughnessFactor":0.5
			}
		},
		{
			"doubleSided":true,
			"name":"*",
			"pbrMetallicRoughness":{
				"baseColorFactor":[
					0.04614884406328201,
					0.04614884406328201,
					0.04614884406328201,
					1
				],
				"metallicFactor":0,
				"roughnessFactor":0.4000000059604645
			}
		},
		{
			"doubleSided":true,
			"name":"Niraj_Shoe_Stitching",
			"pbrMetallicRoughness":{
				"baseColorFactor":[
					0.47044023871421814,
					0.25491586327552795,
					0.10615606606006622,
					1
				],
				"metallicFactor":0,
				"roughnessFactor":0.4000000059604645
			}
		},
		{
			"doubleSided":true,
			"name":"<auto>4",
			"pbrMetallicRoughness":{
				"baseColorFactor":[
					1,
					1,
					0.21576440334320068,
					1
				],
				"metallicFactor":0,
				"roughnessFactor":0.4000000059604645
			}
		}
	],
	"meshes":[
		{
			"name":"G-__557517",
			"primitives":[
				{
					"attributes":{
						"POSITION":0,
						"NORMAL":1
					},
					"indices":2,
					"material":0
				},
				{
					"attributes":{
						"POSITION":3,
						"NORMAL":4
					},
					"indices":5,
					"material":1
				},
				{
					"attributes":{
						"POSITION":6,
						"NORMAL":7
					},
					"indices":8,
					"material":2
				},
				{
					"attributes":{
						"POSITION":9,
						"NORMAL":10
					},
					"indices":11,
					"material":3
				}
			]
		},
		{
			"name":"G-__557544",
			"primitives":[
				{
					"attributes":{
						"POSITION":12,
						"NORMAL":13
					},
					"indices":14,
					"material":0
				},
				{
					"attributes":{
						"POSITION":15,
						"NORMAL":16
					},
					"indices":17,
					"material":2
				},
				{
					"attributes":{
						"POSITION":18,
						"NORMAL":19
					},
					"indices":20,
					"material":1
				}
			]
		},
		{
			"name":"G-__557580.001",
			"primitives":[
				{
					"attributes":{
						"POSITION":21,
						"NORMAL":22
					},
					"indices":23,
					"material":0
				}
			]
		}
	],
	"accessors":[
		{
			"bufferView":0,
			"componentType":5126,
			"count":2614,
			"max":[
				0.04200000315904617,
				2.0999999046325684,
				0.011352777481079102
			],
			"min":[
				-0.006999999284744263,
				0,
				-0.800000011920929
			],
			"type":"VEC3"
		},
		{
			"bufferView":1,
			"componentType":5126,
			"count":2614,
			"type":"VEC3"
		},
		{
			"bufferView":2,
			"componentType":5123,
			"count":7644,
			"type":"SCALAR"
		},
		{
			"bufferView":3,
			"componentType":5126,
			"count":1677,
			"max":[
				0.04699999839067459,
				1.9475998878479004,
				-0.795973002910614
			],
			"min":[
				0.009999997913837433,
				0.14999991655349731,
				-0.8069729804992676
			],
			"type":"VEC3"
		},
		{
			"bufferView":4,
			"componentType":5126,
			"count":1677,
			"type":"VEC3"
		},
		{
			"bufferView":5,
			"componentType":5123,
			"count":4734,
			"type":"SCALAR"
		},
		{
			"bufferView":6,
			"componentType":5126,
			"count":2827,
			"max":[
				0.026999998837709427,
				1.9426000118255615,
				0.0004995567724108696
			],
			"min":[
				0.012512393295764923,
				0.15499991178512573,
				-0.8019729852676392
			],
			"type":"VEC3"
		},
		{
			"bufferView":7,
			"componentType":5126,
			"count":2827,
			"type":"VEC3"
		},
		{
			"bufferView":8,
			"componentType":5123,
			"count":8034,
			"type":"SCALAR"
		},
		{
			"bufferView":9,
			"componentType":5126,
			"count":100,
			"max":[
				0.0414000004529953,
				0.9893832206726074,
				-0.048800479620695114
			],
			"min":[
				-0.00639999657869339,
				0.9668832421302795,
				-0.05730047821998596
			],
			"type":"VEC3"
		},
		{
			"bufferView":10,
			"componentType":5126,
			"count":100,
			"type":"VEC3"
		},
		{
			"bufferView":11,
			"componentType":5123,
			"count":288,
			"type":"SCALAR"
		},
		{
			"bufferView":12,
			"componentType":5126,
			"count":773,
			"max":[
				0.16400055587291718,
				2.1770124435424805,
				0.005415936000645161
			],
			"min":[
				-6.29927114914608e-07,
				5.355911714133299e-09,
				-0.9778613448143005
			],
			"type":"VEC3"
		},
		{
			"bufferView":13,
			"componentType":5126,
			"count":773,
			"type":"VEC3"
		},
		{
			"bufferView":14,
			"componentType":5123,
			"count":1587,
			"type":"SCALAR"
		},
		{
			"bufferView":15,
			"componentType":5126,
			"count":1445,
			"max":[
				0.14368289709091187,
				2.0161755084991455,
				-0.9031182527542114
			],
			"min":[
				0.1303052008152008,
				0.2285754680633545,
				-0.9051230549812317
			],
			"type":"VEC3"
		},
		{
			"bufferView":16,
			"componentType":5126,
			"count":1445,
			"type":"VEC3"
		},
		{
			"bufferView":17,
			"componentType":5123,
			"count":3474,
			"type":"SCALAR"
		},
		{
			"bufferView":18,
			"componentType":5126,
			"count":3815,
			"max":[
				0.16350170969963074,
				2.0241754055023193,
				-0.8979182243347168
			],
			"min":[
				0.126836895942688,
				0.22057557106018066,
				-0.9094130396842957
			],
			"type":"VEC3"
		},
		{
			"bufferView":19,
			"componentType":5126,
			"count":3815,
			"type":"VEC3"
		},
		{
			"bufferView":20,
			"componentType":5123,
			"count":11646,
			"type":"SCALAR"
		},
		{
			"bufferView":21,
			"componentType":5126,
			"count":1382,
			"max":[
				0.08939316868782043,
				0.010960519313812256,
				0.011052783578634262
			],
			"min":[
				-0.08993342518806458,
				-0.011063657701015472,
				-0.14696194231510162
			],
			"type":"VEC3"
		},
		{
			"bufferView":22,
			"componentType":5126,
			"count":1382,
			"type":"VEC3"
		},
		{
			"bufferView":23,
			"componentType":5123,
			"count":6750,
			"type":"SCALAR"
		},
		{
			"bufferView":24,
			"componentType":5126,
			"count":60,
			"max":[
				2
			],
			"min":[
				0.03333333333333333
			],
			"type":"SCALAR"
		},
		{
			"bufferView":25,
			"componentType":5126,
			"count":60,
			"type":"VEC3"
		},
		{
			"bufferView":26,
			"componentType":5126,
			"count":60,
			"type":"VEC4"
		}
	],
	"bufferViews":[
		{
			"buffer":0,
			"byteLength":31368,
			"byteOffset":0,
			"target":34962
		},
		{
			"buffer":0,
			"byteLength":31368,
			"byteOffset":31368,
			"target":34962
		},
		{
			"buffer":0,
			"byteLength":15288,
			"byteOffset":62736,
			"target":34963
		},
		{
			"buffer":0,
			"byteLength":20124,
			"byteOffset":78024,
			"target":34962
		},
		{
			"buffer":0,
			"byteLength":20124,
			"byteOffset":98148,
			"target":34962
		},
		{
			"buffer":0,
			"byteLength":9468,
			"byteOffset":118272,
			"target":34963
		},
		{
			"buffer":0,
			"byteLength":33924,
			"byteOffset":127740,
			"target":34962
		},
		{
			"buffer":0,
			"byteLength":33924,
			"byteOffset":161664,
			"target":34962
		},
		{
			"buffer":0,
			"byteLength":16068,
			"byteOffset":195588,
			"target":34963
		},
		{
			"buffer":0,
			"byteLength":1200,
			"byteOffset":211656,
			"target":34962
		},
		{
			"buffer":0,
			"byteLength":1200,
			"byteOffset":212856,
			"target":34962
		},
		{
			"buffer":0,
			"byteLength":576,
			"byteOffset":214056,
			"target":34963
		},
		{
			"buffer":0,
			"byteLength":9276,
			"byteOffset":214632,
			"target":34962
		},
		{
			"buffer":0,
			"byteLength":9276,
			"byteOffset":223908,
			"target":34962
		},
		{
			"buffer":0,
			"byteLength":3174,
			"byteOffset":233184,
			"target":34963
		},
		{
			"buffer":0,
			"byteLength":17340,
			"byteOffset":236360,
			"target":34962
		},
		{
			"buffer":0,
			"byteLength":17340,
			"byteOffset":253700,
			"target":34962
		},
		{
			"buffer":0,
			"byteLength":6948,
			"byteOffset":271040,
			"target":34963
		},
		{
			"buffer":0,
			"byteLength":45780,
			"byteOffset":277988,
			"target":34962
		},
		{
			"buffer":0,
			"byteLength":45780,
			"byteOffset":323768,
			"target":34962
		},
		{
			"buffer":0,
			"byteLength":23292,
			"byteOffset":369548,
			"target":34963
		},
		{
			"buffer":0,
			"byteLength":16584,
			"byteOffset":392840,
			"target":34962
		},
		{
			"buffer":0,
			"byteLength":16584,
			"byteOffset":409424,
			"target":34962
		},
		{
			"buffer":0,
			"byteLength":13500,
			"byteOffset":426008,
			"target":34963
		},
		{
			"buffer":0,
			"byteLength":240,
			"byteOffset":439508
		},
		{
			"buffer":0,
			"byteLength":720,
			"byteOffset":439748
		},
		{
			"buffer":0,
			"byteLength":960,
			"byteOffset":440468
		}
	],
	"buffers":[
		{
			"byteLength":441428,
			"uri":"data:application/octet-stream;base64,"
		}
	]
}
